<svg xmlns="http://www.w3.org/2000/svg" xmlns:xlink="http://www.w3.org/1999/xlink" width="45" height="45" viewBox="0 0 45 45"><defs><path id="uu7pb" d="M196.87 101.77a.34.34 0 0 0 .5-.46 10.88 10.88 0 1 0-8.07 18.15c3.07 0 6.02-1.3 8.08-3.59a.34.34 0 1 0-.51-.45 10.2 10.2 0 1 1-7.57-17.02 10.2 10.2 0 0 1 7.57 3.37"/><path id="uu7pc" d="M183.64 108.27a5.48 5.48 0 1 1 10.96.01 5.48 5.48 0 0 1-10.96 0zm11.63 5.82v-5.9-.03a6.16 6.16 0 1 0-.68 2.92v3a.34.34 0 1 0 .68 0z"/><path id="uu7pa" d="M167 108.5V86h45v45h-45z"/><path id="uu7pe" d="M167.34 108.5a22.18 22.18 0 0 1 22.16-22.16 22.18 22.18 0 0 1 22.16 22.16 22.18 22.18 0 0 1-22.16 22.16 22.18 22.18 0 0 1-22.16-22.16zm-.34 0c0 12.4 10.1 22.5 22.5 22.5s22.5-10.1 22.5-22.5S201.9 86 189.5 86 167 96.1 167 108.5z"/><path id="uu7pf" d="M173.77 108.5c0-8.67 7.06-15.73 15.73-15.73 8.67 0 15.73 7.06 15.73 15.73 0 8.67-7.06 15.73-15.73 15.73a15.75 15.75 0 0 1-15.73-15.73zm-.34 0c0 8.86 7.21 16.07 16.07 16.07s16.07-7.2 16.07-16.07c0-8.86-7.2-16.07-16.07-16.07a16.09 16.09 0 0 0-16.07 16.07z"/><path id="uu7pg" d="M169.4 108.5c0-11.09 9.01-20.1 20.1-20.1 11.08 0 20.1 9.01 20.1 20.1 0 11.08-9.02 20.1-20.1 20.1a20.13 20.13 0 0 1-20.1-20.1zm-.35 0a20.47 20.47 0 0 0 20.45 20.45 20.47 20.47 0 0 0 20.44-20.45 20.47 20.47 0 0 0-20.44-20.45 20.47 20.47 0 0 0-20.45 20.45z"/><path id="uu7ph" d="M187.27 91.93h.02c.1-.01.16-.1.15-.19l-.34-2.64a.17.17 0 0 0-.19-.15c-.1.01-.16.1-.15.2l.34 2.63c.01.1.09.15.17.15"/><path id="uu7pi" d="M182.86 92.97a.17.17 0 0 0 .23.1.17.17 0 0 0 .1-.23l-1.02-2.46a.17.17 0 1 0-.32.13z"/><path id="uu7pj" d="M179.07 95.22a.17.17 0 0 0 .24.04c.08-.06.09-.17.03-.25l-1.61-2.11a.17.17 0 1 0-.27.2z"/><path id="uu7pk" d="M175.98 98.38c.03.02.07.03.1.03a.17.17 0 0 0 .11-.3l-2.1-1.63a.17.17 0 0 0-.24.03.17.17 0 0 0 .03.24z"/><path id="uu7pl" d="M171.38 101.2l2.45 1.02.07.01c.07 0 .13-.04.16-.1a.17.17 0 0 0-.1-.23l-2.45-1.03a.17.17 0 0 0-.23.1c-.03.08 0 .18.1.22"/><path id="uu7pm" d="M170.1 106.13l2.64.36h.02c.08 0 .16-.06.17-.15a.17.17 0 0 0-.15-.2l-2.63-.35a.17.17 0 0 0-.2.15c-.01.1.06.18.15.2"/><path id="uu7pn" d="M172.93 110.7a.17.17 0 0 0-.2-.15l-2.63.34a.17.17 0 0 0 .02.34h.02l2.64-.34c.1 0 .16-.1.15-.19"/><path id="uu7po" d="M174.06 114.92a.17.17 0 0 0-.22-.1l-2.46 1.01a.17.17 0 1 0 .13.32l2.46-1a.17.17 0 0 0 .1-.23"/><path id="uu7pp" d="M176.26 118.69a.17.17 0 0 0-.25-.03l-2.11 1.6a.17.17 0 0 0 .2.28l2.12-1.61a.17.17 0 0 0 .04-.24"/><path id="uu7pq" d="M179.1 121.8l-1.62 2.11a.17.17 0 0 0 .13.28c.05 0 .1-.02.14-.07l1.63-2.1a.17.17 0 1 0-.28-.21"/><path id="uu7pr" d="M183.13 123.94a.17.17 0 0 0-.23.1l-1.03 2.45c-.03.09 0 .19.1.23l.06.01c.07 0 .13-.04.16-.1l1.03-2.46a.17.17 0 0 0-.1-.23"/><path id="uu7ps" d="M187.34 125.07a.17.17 0 0 0-.2.15l-.35 2.64c-.01.1.06.18.15.2h.02c.09 0 .16-.07.17-.16l.36-2.64a.17.17 0 0 0-.15-.19"/><path id="uu7pt" d="M191.7 125.07c-.1.01-.16.1-.15.2l.34 2.63c.01.09.09.15.17.15h.02c.1-.01.16-.1.15-.19l-.34-2.64a.17.17 0 0 0-.19-.15"/><path id="uu7pu" d="M196.14 124.03a.17.17 0 0 0-.32.13l1.01 2.46a.17.17 0 1 0 .32-.13z"/><path id="uu7pv" d="M199.93 121.78a.17.17 0 0 0-.27.2l1.6 2.12a.17.17 0 0 0 .25.04.17.17 0 0 0 .03-.25z"/><path id="uu7pw" d="M203.02 118.63a.17.17 0 0 0-.24.03.17.17 0 0 0 .03.24l2.1 1.62a.17.17 0 0 0 .24-.03.17.17 0 0 0-.03-.24z"/><path id="uu7px" d="M207.62 115.8l-2.45-1.02a.17.17 0 0 0-.23.1c-.03.08 0 .18.1.22l2.45 1.03.07.01a.17.17 0 0 0 .06-.33"/><path id="uu7py" d="M208.9 110.87l-2.63-.36a.17.17 0 0 0-.05.34l2.64.36h.02a.17.17 0 0 0 .02-.34"/><path id="uu7pz" d="M206.07 106.3c.01.08.09.14.17.14h.02l2.64-.34c.1-.01.16-.1.15-.19a.17.17 0 0 0-.2-.15l-2.63.34c-.1.01-.16.1-.15.2"/><path id="uu7pA" d="M204.93 102.09a.17.17 0 0 0 .23.1l2.46-1.02a.17.17 0 1 0-.13-.32l-2.46 1.01a.17.17 0 0 0-.1.23"/><path id="uu7pB" d="M202.75 98.31c.03.04.08.07.13.07.04 0 .08-.01.1-.04l2.12-1.61a.17.17 0 0 0 .04-.24.17.17 0 0 0-.25-.03l-2.11 1.6a.17.17 0 0 0-.03.25"/><path id="uu7pC" d="M199.76 95.26c.05 0 .1-.02.14-.07l1.63-2.1a.17.17 0 0 0-.04-.24.17.17 0 0 0-.24.03l-1.62 2.1a.17.17 0 0 0 .13.28"/><path id="uu7pD" d="M195.88 93.06l.06.01c.07 0 .13-.04.16-.1l1.03-2.46a.17.17 0 0 0-.32-.13l-1.03 2.45c-.03.09 0 .19.1.23"/><path id="uu7pE" d="M191.66 91.93h.02c.09 0 .16-.06.17-.15l.36-2.63a.17.17 0 1 0-.34-.05l-.36 2.64c-.01.1.06.18.15.2"/><path id="uu7pF" d="M189.42 91.79c.1 0 .18-.08.18-.18v-2.66c0-.1-.08-.17-.18-.17-.1 0-.17.08-.17.17v2.66c0 .1.08.18.17.18"/><path id="uu7pG" d="M184.9 92.26c.02.08.08.13.16.13l.05-.01c.09-.02.14-.12.12-.21l-.7-2.57a.17.17 0 0 0-.32.09z"/><path id="uu7pH" d="M180.84 94a.17.17 0 0 0 .24.07.17.17 0 0 0 .06-.24l-1.33-2.3a.17.17 0 0 0-.23-.07.17.17 0 0 0-.07.24z"/><path id="uu7pI" d="M177.38 96.74a.17.17 0 0 0 .25 0 .17.17 0 0 0 0-.25l-1.89-1.88a.17.17 0 0 0-.24 0 .17.17 0 0 0 0 .24z"/><path id="uu7pJ" d="M172.45 98.94l2.3 1.33.09.03c.06 0 .11-.04.15-.1a.17.17 0 0 0-.07-.23l-2.3-1.33a.17.17 0 1 0-.17.3"/><path id="uu7pK" d="M170.56 103.68l2.57.69h.04a.17.17 0 0 0 .05-.34l-2.57-.68a.17.17 0 1 0-.1.33"/><path id="uu7pL" d="M172.61 108.74a.17.17 0 1 0 0-.34h-2.66c-.1 0-.17.08-.17.17 0 .1.08.17.17.17z"/><path id="uu7pM" d="M173.38 112.9a.17.17 0 0 0-.21-.12l-2.57.68a.17.17 0 0 0-.12.22.17.17 0 0 0 .2.12l2.58-.7c.09-.02.14-.11.12-.2"/><path id="uu7pN" d="M175.07 116.92a.17.17 0 0 0-.24-.07l-2.3 1.33a.17.17 0 0 0-.07.24c.04.05.1.09.15.09l.09-.03 2.3-1.33a.17.17 0 0 0 .07-.23"/><path id="uu7pO" d="M177.74 120.37a.17.17 0 0 0-.25 0l-1.88 1.88a.17.17 0 0 0 0 .25c.03.03.08.05.12.05.05 0 .09-.02.12-.05l1.89-1.89a.17.17 0 0 0 0-.24"/><path id="uu7pP" d="M181.2 123.01a.17.17 0 0 0-.23.07l-1.33 2.3a.17.17 0 0 0 .3.17l1.33-2.3a.17.17 0 0 0-.06-.24"/><path id="uu7pQ" d="M185.25 124.67a.17.17 0 0 0-.21.12l-.7 2.57a.17.17 0 1 0 .34.09l.69-2.57a.17.17 0 0 0-.12-.21"/><path id="uu7pR" d="M189.57 125.21c-.1 0-.17.08-.17.17v2.66c0 .1.08.18.17.18.1 0 .18-.08.18-.18v-2.66c0-.1-.08-.17-.18-.17"/><path id="uu7pS" d="M194.1 124.75a.17.17 0 0 0-.33.09l.7 2.57a.17.17 0 0 0 .2.12c.1-.03.15-.12.13-.21z"/><path id="uu7pT" d="M198.15 123a.17.17 0 0 0-.23-.07.17.17 0 0 0-.07.24l1.33 2.3a.17.17 0 0 0 .3-.17z"/><path id="uu7pU" d="M201.61 120.26a.17.17 0 0 0-.24 0 .17.17 0 0 0 0 .24l1.88 1.89c.04.03.08.05.12.05.05 0 .1-.02.13-.05a.17.17 0 0 0 0-.25z"/><path id="uu7pV" d="M206.55 118.06l-2.3-1.33a.17.17 0 0 0-.24.07.17.17 0 0 0 .07.23l2.3 1.33c.03.02.06.02.09.02.06 0 .11-.03.15-.08a.17.17 0 0 0-.07-.24"/><path id="uu7pW" d="M208.45 113.32l-2.57-.68a.17.17 0 0 0-.21.12c-.03.09.03.18.12.2l2.57.7h.04a.17.17 0 0 0 .05-.34"/><path id="uu7pX" d="M209.04 108.25h-2.66a.17.17 0 1 0 0 .34h2.66c.1 0 .18-.07.18-.17s-.08-.17-.18-.17"/><path id="uu7pY" d="M205.63 104.1a.17.17 0 0 0 .2.13l2.58-.7c.09-.01.14-.11.12-.2a.17.17 0 0 0-.21-.12l-2.57.69a.17.17 0 0 0-.12.2"/><path id="uu7pZ" d="M203.93 100.08c.04.05.1.08.15.08.03 0 .06 0 .09-.02l2.3-1.33a.17.17 0 1 0-.17-.3l-2.3 1.33a.17.17 0 0 0-.07.24"/><path id="uu7paa" d="M201.26 96.63a.17.17 0 0 0 .24 0l1.89-1.88a.17.17 0 0 0 0-.25.17.17 0 0 0-.25 0l-1.88 1.88a.17.17 0 0 0 0 .25"/><path id="uu7pab" d="M197.8 93.99l.08.02c.06 0 .12-.03.15-.09l1.33-2.3a.17.17 0 0 0-.3-.17l-1.33 2.3a.17.17 0 0 0 .07.24"/><path id="uu7pac" d="M193.76 92.34h.04c.08 0 .15-.04.17-.12l.69-2.57a.17.17 0 1 0-.34-.1l-.68 2.58c-.03.09.03.19.12.2"/><clipPath id="uu7pd"><use xlink:href="#uu7pa"/></clipPath></defs><g><g transform="translate(-167 -86)"><use fill="#b49740" xlink:href="#uu7pb"/></g><g transform="translate(-167 -86)"><use fill="#b49740" xlink:href="#uu7pc"/></g><g transform="translate(-167 -86)"/><g clip-path="url(#uu7pd)" transform="translate(-167 -86)"><use fill="#b49740" xlink:href="#uu7pe"/></g><g transform="translate(-167 -86)"><use fill="#b49740" xlink:href="#uu7pf"/></g><g transform="translate(-167 -86)"><use fill="#b49740" xlink:href="#uu7pg"/></g><g transform="translate(-167 -86)"><use fill="#b49740" xlink:href="#uu7ph"/></g><g transform="translate(-167 -86)"><use fill="#b49740" xlink:href="#uu7pi"/></g><g transform="translate(-167 -86)"><use fill="#b49740" xlink:href="#uu7pj"/></g><g transform="translate(-167 -86)"><use fill="#b49740" xlink:href="#uu7pk"/></g><g transform="translate(-167 -86)"><use fill="#b49740" xlink:href="#uu7pl"/></g><g transform="translate(-167 -86)"><use fill="#b49740" xlink:href="#uu7pm"/></g><g transform="translate(-167 -86)"><use fill="#b49740" xlink:href="#uu7pn"/></g><g transform="translate(-167 -86)"><use fill="#b49740" xlink:href="#uu7po"/></g><g transform="translate(-167 -86)"><use fill="#b49740" xlink:href="#uu7pp"/></g><g transform="translate(-167 -86)"><use fill="#b49740" xlink:href="#uu7pq"/></g><g transform="translate(-167 -86)"><use fill="#b49740" xlink:href="#uu7pr"/></g><g transform="translate(-167 -86)"><use fill="#b49740" xlink:href="#uu7ps"/></g><g transform="translate(-167 -86)"><use fill="#b49740" xlink:href="#uu7pt"/></g><g transform="translate(-167 -86)"><use fill="#b49740" xlink:href="#uu7pu"/></g><g transform="translate(-167 -86)"><use fill="#b49740" xlink:href="#uu7pv"/></g><g transform="translate(-167 -86)"><use fill="#b49740" xlink:href="#uu7pw"/></g><g transform="translate(-167 -86)"><use fill="#b49740" xlink:href="#uu7px"/></g><g transform="translate(-167 -86)"><use fill="#b49740" xlink:href="#uu7py"/></g><g transform="translate(-167 -86)"><use fill="#b49740" xlink:href="#uu7pz"/></g><g transform="translate(-167 -86)"><use fill="#b49740" xlink:href="#uu7pA"/></g><g transform="translate(-167 -86)"><use fill="#b49740" xlink:href="#uu7pB"/></g><g transform="translate(-167 -86)"><use fill="#b49740" xlink:href="#uu7pC"/></g><g transform="translate(-167 -86)"><use fill="#b49740" xlink:href="#uu7pD"/></g><g transform="translate(-167 -86)"><use fill="#b49740" xlink:href="#uu7pE"/></g><g transform="translate(-167 -86)"><use fill="#b49740" xlink:href="#uu7pF"/></g><g transform="translate(-167 -86)"><use fill="#b49740" xlink:href="#uu7pG"/></g><g transform="translate(-167 -86)"><use fill="#b49740" xlink:href="#uu7pH"/></g><g transform="translate(-167 -86)"><use fill="#b49740" xlink:href="#uu7pI"/></g><g transform="translate(-167 -86)"><use fill="#b49740" xlink:href="#uu7pJ"/></g><g transform="translate(-167 -86)"><use fill="#b49740" xlink:href="#uu7pK"/></g><g transform="translate(-167 -86)"><use fill="#b49740" xlink:href="#uu7pL"/></g><g transform="translate(-167 -86)"><use fill="#b49740" xlink:href="#uu7pM"/></g><g transform="translate(-167 -86)"><use fill="#b49740" xlink:href="#uu7pN"/></g><g transform="translate(-167 -86)"><use fill="#b49740" xlink:href="#uu7pO"/></g><g transform="translate(-167 -86)"><use fill="#b49740" xlink:href="#uu7pP"/></g><g transform="translate(-167 -86)"><use fill="#b49740" xlink:href="#uu7pQ"/></g><g transform="translate(-167 -86)"><use fill="#b49740" xlink:href="#uu7pR"/></g><g transform="translate(-167 -86)"><use fill="#b49740" xlink:href="#uu7pS"/></g><g transform="translate(-167 -86)"><use fill="#b49740" xlink:href="#uu7pT"/></g><g transform="translate(-167 -86)"><use fill="#b49740" xlink:href="#uu7pU"/></g><g transform="translate(-167 -86)"><use fill="#b49740" xlink:href="#uu7pV"/></g><g transform="translate(-167 -86)"><use fill="#b49740" xlink:href="#uu7pW"/></g><g transform="translate(-167 -86)"><use fill="#b49740" xlink:href="#uu7pX"/></g><g transform="translate(-167 -86)"><use fill="#b49740" xlink:href="#uu7pY"/></g><g transform="translate(-167 -86)"><use fill="#b49740" xlink:href="#uu7pZ"/></g><g transform="translate(-167 -86)"><use fill="#b49740" xlink:href="#uu7paa"/></g><g transform="translate(-167 -86)"><use fill="#b49740" xlink:href="#uu7pab"/></g><g transform="translate(-167 -86)"><use fill="#b49740" xlink:href="#uu7pac"/></g></g></svg>