<?xml version="1.0" encoding="UTF-8"?>
<svg width="54px" height="45px" viewBox="0 0 54 45" version="1.1" xmlns="http://www.w3.org/2000/svg" xmlns:xlink="http://www.w3.org/1999/xlink">
    <!-- Generator: Sketch 47 (45396) - http://www.bohemiancoding.com/sketch -->
    <title>Корзина Passive</title>
    <desc>Created with Sketch.</desc>
    <defs></defs>
    <g id="Page-1" stroke="none" stroke-width="1" fill="none" fill-rule="evenodd">
        <g id="Корзина-Passive">
            <g id="Page-1">
                <polygon id="Fill-1" fill="#FFFFFF" points="0 45 54 45 54 0 0 0"></polygon>
                <g id="Group-10" transform="translate(19.000000, 11.000000)" fill="#000000">
                    <path d="M10.9434,3.7866 C10.7854,3.7866 10.6554,3.6576 10.6554,3.4986 C10.6554,1.9096 9.3624,0.6156 7.7734,0.6156 C6.1834,0.6156 4.8914,1.9096 4.8914,3.4986 C4.8914,3.6576 4.7614,3.7866 4.6024,3.7866 C4.4444,3.7866 4.3144,3.6576 4.3144,3.4986 C4.3144,1.5916 5.8664,0.0396 7.7734,0.0396 C9.6794,0.0396 11.2314,1.5916 11.2314,3.4986 C11.2314,3.6576 11.1024,3.7866 10.9434,3.7866" id="Fill-2"></path>
                    <path d="M14.5537,21.04 C14.3957,21.04 14.2657,20.911 14.2657,20.752 L14.2657,4.819 L0.9797,4.819 L0.9797,20.464 L12.1937,20.464 C12.3527,20.464 12.4827,20.593 12.4827,20.752 C12.4827,20.911 12.3527,21.04 12.1937,21.04 L0.4027,21.04 L0.4027,4.243 L14.8417,4.243 L14.8417,20.752 C14.8417,20.911 14.7117,21.04 14.5537,21.04" id="Fill-4"></path>
                    <path d="M4.9287,6.1631 C4.9287,6.4111 4.7287,6.6121 4.4807,6.6121 C4.2327,6.6121 4.0317,6.4111 4.0317,6.1631 C4.0317,5.9151 4.2327,5.7141 4.4807,5.7141 C4.7287,5.7141 4.9287,5.9151 4.9287,6.1631" id="Fill-6"></path>
                    <path d="M11.2139,6.1631 C11.2139,6.4111 11.0129,6.6121 10.7649,6.6121 C10.5169,6.6121 10.3159,6.4111 10.3159,6.1631 C10.3159,5.9151 10.5169,5.7141 10.7649,5.7141 C11.0129,5.7141 11.2139,5.9151 11.2139,6.1631" id="Fill-8"></path>
                </g>
            </g>
        </g>
    </g>
</svg>