<?xml version="1.0" encoding="utf-8"?>
<!-- Generator: Adobe Illustrator 22.0.1, SVG Export Plug-In . SVG Version: 6.00 Build 0)  -->
<svg version="1.1" xmlns="http://www.w3.org/2000/svg" xmlns:xlink="http://www.w3.org/1999/xlink" x="0px" y="0px"
	 viewBox="0 0 231.8 74.5" style="enable-background:new 0 0 231.8 74.5;" xml:space="preserve">
<style type="text/css">
	.st0{display:none;}
	.st1{display:inline;fill:#FFFFFF;}
	.st2{display:inline;fill:none;stroke:#000000;stroke-miterlimit:10;}
	.st3{display:inline;}
	.st4{opacity:0.4;}
	.st5{fill:#FFFFFF;}
	.st6{fill:none;stroke:#000000;stroke-width:1.4433;stroke-miterlimit:10;}
	.st7{display:inline;fill:none;stroke:#FF00FF;stroke-width:0.5;stroke-miterlimit:10;}
	.st8{fill:#B49740;}
	.st9{fill:none;stroke:#B49740;stroke-width:0.5;stroke-linecap:round;stroke-miterlimit:10;}
	.st10{fill:#DDD4BF;}
	.st11{fill:#EAE3D3;}
	.st12{fill:#F2F2F2;}
	.st13{fill:#FFFFFF;stroke:#000000;stroke-width:0.5;stroke-linecap:round;stroke-miterlimit:10;}
	.st14{fill:none;stroke:#000000;stroke-width:0.5;stroke-miterlimit:10;}
	.st15{fill:none;stroke:#B49740;stroke-width:0.5;stroke-miterlimit:10;}
	.st16{fill:#CCCCCC;}
	.st17{fill:#808080;}
</style>
<g id="Слой_2" class="st0">
</g>
<g id="Слой_3">
</g>
<g id="Слой_1">
	<g>
		<g>
			<g>
				<path d="M93.9,37.9c0-3.8,2.8-6.9,6.6-6.9c2.4,0,3.7,0.9,5.1,2.2l-0.6,0.7c-1.2-1.1-2.5-2-4.5-2c-3.2,0-5.6,2.6-5.6,6
					c0,3.4,2.4,6,5.6,6c1.9,0,3.2-0.7,4.6-2.1l0.7,0.6c-1.4,1.4-2.9,2.3-5.3,2.3C96.7,44.7,93.9,41.7,93.9,37.9z"/>
				<path d="M111.3,37.9c0-3.6,2.7-6.9,6.7-6.9c4,0,6.7,3.2,6.7,6.9c0,3.6-2.7,6.9-6.7,6.9C113.9,44.7,111.3,41.5,111.3,37.9z
					 M123.6,37.9c0-3.3-2.4-6-5.7-6s-5.6,2.7-5.6,6c0,3.3,2.4,6,5.7,6S123.6,41.2,123.6,37.9z"/>
				<path d="M131.9,31.2h1v13.3h-1V31.2z"/>
				<path d="M140.8,31.2h0.9l9.2,11.5V31.2h0.9v13.3h-0.7l-9.3-11.8v11.8h-0.9V31.2z"/>
				<path d="M158.7,42.6l0.6-0.7c1.5,1.3,2.8,2,4.8,2c2,0,3.4-1.1,3.4-2.7c0-1.4-0.7-2.2-3.8-2.8c-3.2-0.6-4.5-1.7-4.5-3.8
					c0-2,1.8-3.5,4.3-3.5c1.9,0,3.2,0.5,4.5,1.6l-0.6,0.8c-1.3-1.1-2.5-1.5-4-1.5c-2,0-3.2,1.1-3.2,2.5c0,1.4,0.7,2.3,3.9,2.9
					c3.1,0.6,4.4,1.7,4.4,3.7c0,2.1-1.8,3.6-4.4,3.6C161.9,44.7,160.3,44,158.7,42.6z"/>
				<path d="M189.9,31.1h0.9l6.2,13.4H196l-1.7-3.7h-7.8l-1.7,3.7h-1L189.9,31.1z M193.9,39.9l-3.5-7.7l-3.5,7.7H193.9z"/>
				<path d="M202.3,37.9c0-3.6,2.6-6.9,6.6-6.9c2.2,0,3.5,0.6,4.9,1.7l-0.6,0.7c-1-0.9-2.3-1.6-4.3-1.6c-3.2,0-5.5,2.7-5.5,6
					c0,3.4,2.1,6,5.7,6c1.7,0,3.3-0.7,4.2-1.5v-3.8h-4.4v-0.9h5.4v5.1c-1.2,1.1-3.1,2-5.2,2C204.8,44.7,202.3,41.6,202.3,37.9z"/>
				<path d="M221.6,31.2h9.4v0.9h-8.5v5.2h7.6v0.9h-7.6v5.3h8.5v0.9h-9.5V31.2z"/>
			</g>
		</g>
		<g>
			<g>
				<path class="st8" d="M36.9,47.1c-5.7,0-10.3-4.6-10.3-10.3c0-5.7,4.6-10.3,10.3-10.3s10.3,4.6,10.3,10.3
					C47.2,42.5,42.5,47.1,36.9,47.1z M36.9,27.5c-5.2,0-9.4,4.2-9.4,9.4s4.2,9.4,9.4,9.4s9.4-4.2,9.4-9.4S42,27.5,36.9,27.5z"/>
				<path class="st8" d="M37.2,55.7c-10.1,0-18.3-8.2-18.3-18.3c0-10.1,8.2-18.3,18.3-18.3c5.2,0,10.1,2.2,13.6,6
					c0.2,0.2,0.2,0.5,0,0.6c-0.2,0.2-0.5,0.2-0.6,0c-3.3-3.6-8-5.7-12.9-5.7c-9.6,0-17.4,7.8-17.4,17.3c0,9.6,7.8,17.4,17.4,17.4
					c4.9,0,9.6-2.1,12.9-5.7c0.2-0.2,0.5-0.2,0.6,0c0.2,0.2,0.2,0.5,0,0.6C47.3,53.5,42.3,55.7,37.2,55.7z"/>
				<path class="st8" d="M46.7,47.1c-0.3,0-0.5-0.2-0.5-0.5v-10c0-0.3,0.2-0.5,0.5-0.5c0.3,0,0.5,0.2,0.5,0.5v10
					C47.2,46.9,47,47.1,46.7,47.1z"/>
			</g>
			<g>
				<path class="st8" d="M37.5,74C17.2,74,0.7,57.5,0.7,37.2S17.2,0.4,37.5,0.4s36.8,16.5,36.8,36.8S57.8,74,37.5,74z M37.5,1
					C17.6,1,1.3,17.3,1.3,37.2s16.2,36.2,36.2,36.2s36.2-16.2,36.2-36.2S57.5,1,37.5,1z"/>
				<path class="st8" d="M37.5,64.4c-15,0-27.2-12.2-27.2-27.2c0-15,12.2-27.2,27.2-27.2c15,0,27.2,12.2,27.2,27.2
					C64.7,52.2,52.5,64.4,37.5,64.4z M37.5,10.7c-14.7,0-26.6,11.9-26.6,26.6c0,14.7,11.9,26.6,26.6,26.6
					c14.7,0,26.6-11.9,26.6-26.6C64.1,22.6,52.2,10.7,37.5,10.7z"/>
				<path class="st8" d="M37.5,71.8c-19.1,0-34.6-15.5-34.6-34.6c0-19.1,15.5-34.6,34.6-34.6c19.1,0,34.6,15.5,34.6,34.6
					C72.1,56.3,56.6,71.8,37.5,71.8z M37.5,3.3c-18.7,0-34,15.2-34,34s15.2,34,34,34s34-15.2,34-34S56.3,3.3,37.5,3.3z"/>
				<g>
					<g>
						<path class="st8" d="M33.8,9.6c-0.2,0-0.3-0.1-0.3-0.3l-0.6-4.4c0-0.2,0.1-0.3,0.3-0.3c0.2,0,0.3,0.1,0.3,0.3l0.6,4.4
							C34.1,9.4,34,9.5,33.8,9.6C33.8,9.6,33.8,9.6,33.8,9.6z"/>
						<path class="st8" d="M26.7,11.5c-0.1,0-0.2-0.1-0.3-0.2l-1.7-4.1c-0.1-0.2,0-0.3,0.2-0.4c0.2-0.1,0.3,0,0.4,0.2L27,11
							c0.1,0.2,0,0.3-0.2,0.4C26.8,11.5,26.7,11.5,26.7,11.5z"/>
						<path class="st8" d="M20.3,15.2c-0.1,0-0.2,0-0.2-0.1l-2.7-3.5c-0.1-0.1-0.1-0.3,0.1-0.4c0.1-0.1,0.3-0.1,0.4,0.1l2.7,3.5
							c0.1,0.1,0.1,0.3-0.1,0.4C20.4,15.1,20.4,15.2,20.3,15.2z"/>
						<path class="st8" d="M15.1,20.4c-0.1,0-0.1,0-0.2-0.1l-3.5-2.7c-0.1-0.1-0.2-0.3-0.1-0.4c0.1-0.1,0.3-0.2,0.4-0.1l3.5,2.7
							c0.1,0.1,0.2,0.3,0.1,0.4C15.3,20.3,15.2,20.4,15.1,20.4z"/>
						<path class="st8" d="M11.4,26.8c0,0-0.1,0-0.1,0L7.2,25C7,25,7,24.8,7,24.6c0.1-0.2,0.2-0.2,0.4-0.2l4.1,1.7
							c0.2,0.1,0.2,0.2,0.2,0.4C11.7,26.7,11.5,26.8,11.4,26.8z"/>
						<path class="st8" d="M9.5,33.9C9.5,33.9,9.5,33.9,9.5,33.9l-4.5-0.6c-0.2,0-0.3-0.2-0.3-0.3c0-0.2,0.2-0.3,0.3-0.3l4.4,0.6
							c0.2,0,0.3,0.2,0.3,0.3C9.8,33.8,9.7,33.9,9.5,33.9z"/>
						<path class="st8" d="M5.1,41.8c-0.2,0-0.3-0.1-0.3-0.3c0-0.2,0.1-0.3,0.3-0.3l4.4-0.6c0.2,0,0.3,0.1,0.3,0.3
							c0,0.2-0.1,0.3-0.3,0.3L5.1,41.8C5.1,41.8,5.1,41.8,5.1,41.8z"/>
						<path class="st8" d="M7.3,50.1c-0.1,0-0.2-0.1-0.3-0.2c-0.1-0.2,0-0.3,0.2-0.4l4.1-1.7c0.2-0.1,0.3,0,0.4,0.2
							c0.1,0.2,0,0.3-0.2,0.4L7.4,50C7.4,50.1,7.4,50.1,7.3,50.1z"/>
						<path class="st8" d="M11.6,57.5c-0.1,0-0.2,0-0.2-0.1c-0.1-0.1-0.1-0.3,0.1-0.4l3.5-2.7c0.1-0.1,0.3-0.1,0.4,0.1
							c0.1,0.1,0.1,0.3-0.1,0.4l-3.5,2.7C11.7,57.4,11.7,57.5,11.6,57.5z"/>
						<path class="st8" d="M17.6,63.5c-0.1,0-0.1,0-0.2-0.1c-0.1-0.1-0.2-0.3-0.1-0.4l2.7-3.5c0.1-0.1,0.3-0.2,0.4-0.1
							c0.1,0.1,0.2,0.3,0.1,0.4l-2.7,3.5C17.8,63.4,17.7,63.5,17.6,63.5z"/>
						<path class="st8" d="M25,67.8c0,0-0.1,0-0.1,0c-0.2-0.1-0.2-0.2-0.2-0.4l1.7-4.1c0.1-0.2,0.2-0.2,0.4-0.2
							c0.2,0.1,0.2,0.2,0.2,0.4l-1.7,4.1C25.3,67.7,25.1,67.8,25,67.8z"/>
						<path class="st8" d="M33.3,70C33.3,70,33.2,70,33.3,70c-0.2,0-0.3-0.2-0.3-0.3l0.6-4.4c0-0.2,0.2-0.3,0.3-0.3
							c0.2,0,0.3,0.2,0.3,0.3l-0.6,4.4C33.6,69.8,33.4,70,33.3,70z"/>
						<path class="st8" d="M41.8,69.9c-0.2,0-0.3-0.1-0.3-0.3l-0.6-4.4c0-0.2,0.1-0.3,0.3-0.3c0.2,0,0.3,0.1,0.3,0.3l0.6,4.4
							C42.1,69.8,42,69.9,41.8,69.9C41.8,69.9,41.8,69.9,41.8,69.9z"/>
						<path class="st8" d="M50,67.7c-0.1,0-0.2-0.1-0.3-0.2l-1.7-4.1c-0.1-0.2,0-0.3,0.2-0.4c0.2-0.1,0.3,0,0.4,0.2l1.7,4.1
							c0.1,0.2,0,0.3-0.2,0.4C50.1,67.7,50.1,67.7,50,67.7z"/>
						<path class="st8" d="M57.4,63.5c-0.1,0-0.2,0-0.2-0.1l-2.7-3.5c-0.1-0.1-0.1-0.3,0.1-0.4c0.1-0.1,0.3-0.1,0.4,0.1l2.7,3.5
							c0.1,0.1,0.1,0.3-0.1,0.4C57.6,63.4,57.5,63.5,57.4,63.5z"/>
						<path class="st8" d="M63.5,57.4c-0.1,0-0.1,0-0.2-0.1l-3.5-2.7c-0.1-0.1-0.2-0.3-0.1-0.4c0.1-0.1,0.3-0.2,0.4-0.1l3.5,2.7
							c0.1,0.1,0.2,0.3,0.1,0.4C63.6,57.4,63.6,57.4,63.5,57.4z"/>
						<path class="st8" d="M67.7,50c0,0-0.1,0-0.1,0l-4.1-1.7c-0.2-0.1-0.2-0.2-0.2-0.4c0.1-0.2,0.2-0.2,0.4-0.2l4.1,1.7
							c0.2,0.1,0.2,0.2,0.2,0.4C68,50,67.8,50,67.7,50z"/>
						<path class="st8" d="M69.9,41.8C69.9,41.8,69.9,41.8,69.9,41.8l-4.5-0.6c-0.2,0-0.3-0.2-0.3-0.3c0-0.2,0.2-0.3,0.3-0.3
							l4.4,0.6c0.2,0,0.3,0.2,0.3,0.3C70.2,41.7,70.1,41.8,69.9,41.8z"/>
						<path class="st8" d="M65.5,33.8c-0.2,0-0.3-0.1-0.3-0.3c0-0.2,0.1-0.3,0.3-0.3l4.4-0.6c0.2,0,0.3,0.1,0.3,0.3
							c0,0.2-0.1,0.3-0.3,0.3L65.5,33.8C65.5,33.8,65.5,33.8,65.5,33.8z"/>
						<path class="st8" d="M63.6,26.7c-0.1,0-0.2-0.1-0.3-0.2c-0.1-0.2,0-0.3,0.2-0.4l4.1-1.7c0.2-0.1,0.3,0,0.4,0.2
							c0.1,0.2,0,0.3-0.2,0.4l-4.1,1.7C63.7,26.7,63.6,26.7,63.6,26.7z"/>
						<path class="st8" d="M59.9,20.3c-0.1,0-0.2,0-0.2-0.1c-0.1-0.1-0.1-0.3,0.1-0.4l3.5-2.7c0.1-0.1,0.3-0.1,0.4,0.1
							c0.1,0.1,0.1,0.3-0.1,0.4l-3.5,2.7C60,20.3,60,20.3,59.9,20.3z"/>
						<path class="st8" d="M54.7,15.1c-0.1,0-0.1,0-0.2-0.1c-0.1-0.1-0.2-0.3-0.1-0.4l2.7-3.5c0.1-0.1,0.3-0.2,0.4-0.1
							c0.1,0.1,0.2,0.3,0.1,0.4L54.9,15C54.9,15.1,54.8,15.1,54.7,15.1z"/>
						<path class="st8" d="M48.3,11.4c0,0-0.1,0-0.1,0C48,11.4,47.9,11.2,48,11l1.7-4.1c0.1-0.2,0.2-0.2,0.4-0.2
							c0.2,0.1,0.2,0.2,0.2,0.4l-1.7,4.1C48.5,11.4,48.4,11.4,48.3,11.4z"/>
						<path class="st8" d="M41.2,9.5C41.2,9.5,41.1,9.5,41.2,9.5c-0.2,0-0.3-0.2-0.3-0.3l0.6-4.4c0-0.2,0.2-0.3,0.3-0.3
							c0.2,0,0.3,0.2,0.3,0.3l-0.6,4.4C41.5,9.4,41.3,9.5,41.2,9.5z"/>
					</g>
					<g>
						<path class="st8" d="M37.4,9.3c-0.2,0-0.3-0.1-0.3-0.3V4.6c0-0.2,0.1-0.3,0.3-0.3s0.3,0.1,0.3,0.3V9
							C37.7,9.2,37.6,9.3,37.4,9.3z"/>
						<path class="st8" d="M30.1,10.3c-0.1,0-0.3-0.1-0.3-0.2l-1.2-4.3c0-0.2,0.1-0.3,0.2-0.4c0.2,0,0.3,0.1,0.4,0.2l1.2,4.3
							C30.4,10.1,30.3,10.2,30.1,10.3C30.1,10.3,30.1,10.3,30.1,10.3z"/>
						<path class="st8" d="M23.3,13.1c-0.1,0-0.2-0.1-0.3-0.2l-2.2-3.9c-0.1-0.1,0-0.3,0.1-0.4c0.1-0.1,0.3,0,0.4,0.1l2.2,3.9
							c0.1,0.1,0,0.3-0.1,0.4C23.4,13.1,23.3,13.1,23.3,13.1z"/>
						<path class="st8" d="M17.5,17.7c-0.1,0-0.2,0-0.2-0.1l-3.1-3.1c-0.1-0.1-0.1-0.3,0-0.4s0.3-0.1,0.4,0l3.1,3.1
							c0.1,0.1,0.1,0.3,0,0.4C17.6,17.6,17.5,17.7,17.5,17.7z"/>
						<path class="st8" d="M13,23.5c-0.1,0-0.1,0-0.2,0L9,21.3c-0.1-0.1-0.2-0.3-0.1-0.4c0.1-0.1,0.3-0.2,0.4-0.1l3.9,2.2
							c0.1,0.1,0.2,0.3,0.1,0.4C13.2,23.5,13.1,23.5,13,23.5z"/>
						<path class="st8" d="M10.2,30.4C10.2,30.4,10.2,30.4,10.2,30.4l-4.4-1.2c-0.2,0-0.3-0.2-0.2-0.4c0-0.2,0.2-0.3,0.4-0.2
							l4.3,1.2c0.2,0,0.3,0.2,0.2,0.4C10.5,30.3,10.3,30.4,10.2,30.4z"/>
						<path class="st8" d="M9.3,37.7H4.8c-0.2,0-0.3-0.1-0.3-0.3s0.1-0.3,0.3-0.3h4.5c0.2,0,0.3,0.1,0.3,0.3S9.5,37.7,9.3,37.7z"/>
						<path class="st8" d="M6,46.1c-0.1,0-0.3-0.1-0.3-0.2c0-0.2,0.1-0.3,0.2-0.4l4.3-1.2c0.2,0,0.3,0.1,0.4,0.2
							c0,0.2-0.1,0.3-0.2,0.4L6,46.1C6,46.1,6,46.1,6,46.1z"/>
						<path class="st8" d="M9.3,54c-0.1,0-0.2-0.1-0.3-0.2c-0.1-0.1,0-0.3,0.1-0.4l3.9-2.2c0.1-0.1,0.3,0,0.4,0.1
							c0.1,0.1,0,0.3-0.1,0.4L9.4,54C9.4,54,9.3,54,9.3,54z"/>
						<path class="st8" d="M14.5,60.7c-0.1,0-0.2,0-0.2-0.1c-0.1-0.1-0.1-0.3,0-0.4l3.1-3.1c0.1-0.1,0.3-0.1,0.4,0
							c0.1,0.1,0.1,0.3,0,0.4l-3.1,3.1C14.7,60.7,14.6,60.7,14.5,60.7z"/>
						<path class="st8" d="M21.3,65.9c-0.1,0-0.1,0-0.2,0c-0.1-0.1-0.2-0.3-0.1-0.4l2.2-3.9c0.1-0.1,0.3-0.2,0.4-0.1
							c0.1,0.1,0.2,0.3,0.1,0.4l-2.2,3.9C21.5,65.9,21.4,65.9,21.3,65.9z"/>
						<path class="st8" d="M29.2,69.1C29.2,69.1,29.1,69.1,29.2,69.1c-0.2-0.1-0.3-0.2-0.3-0.4l1.2-4.3c0-0.2,0.2-0.3,0.4-0.2
							c0.2,0,0.3,0.2,0.2,0.4l-1.2,4.3C29.4,69.1,29.3,69.1,29.2,69.1z"/>
						<path class="st8" d="M37.6,70.2c-0.2,0-0.3-0.1-0.3-0.3v-4.5c0-0.2,0.1-0.3,0.3-0.3s0.3,0.1,0.3,0.3v4.5
							C37.9,70.1,37.8,70.2,37.6,70.2z"/>
						<path class="st8" d="M46.1,69.1c-0.1,0-0.3-0.1-0.3-0.2l-1.2-4.3c0-0.2,0.1-0.3,0.2-0.4c0.2,0,0.3,0.1,0.4,0.2l1.2,4.3
							C46.4,68.9,46.3,69,46.1,69.1C46.2,69.1,46.1,69.1,46.1,69.1z"/>
						<path class="st8" d="M54,65.8c-0.1,0-0.2-0.1-0.3-0.2l-2.2-3.9c-0.1-0.1,0-0.3,0.1-0.4c0.1-0.1,0.3,0,0.4,0.1l2.2,3.9
							c0.1,0.1,0,0.3-0.1,0.4C54.1,65.8,54,65.8,54,65.8z"/>
						<path class="st8" d="M60.7,60.6c-0.1,0-0.2,0-0.2-0.1l-3.1-3.1c-0.1-0.1-0.1-0.3,0-0.4c0.1-0.1,0.3-0.1,0.4,0l3.1,3.1
							c0.1,0.1,0.1,0.3,0,0.4C60.9,60.5,60.8,60.6,60.7,60.6z"/>
						<path class="st8" d="M65.9,53.8c-0.1,0-0.1,0-0.2,0l-3.9-2.2c-0.1-0.1-0.2-0.3-0.1-0.4c0.1-0.1,0.3-0.2,0.4-0.1l3.9,2.2
							c0.1,0.1,0.2,0.3,0.1,0.4C66.1,53.7,66,53.8,65.9,53.8z"/>
						<path class="st8" d="M69.1,45.9C69.1,45.9,69.1,45.9,69.1,45.9l-4.4-1.2c-0.2,0-0.3-0.2-0.2-0.4c0-0.2,0.2-0.3,0.4-0.2
							l4.3,1.2c0.2,0,0.3,0.2,0.2,0.4C69.4,45.8,69.3,45.9,69.1,45.9z"/>
						<path class="st8" d="M70.2,37.4h-4.5c-0.2,0-0.3-0.1-0.3-0.3s0.1-0.3,0.3-0.3h4.5c0.2,0,0.3,0.1,0.3,0.3S70.4,37.4,70.2,37.4z
							"/>
						<path class="st8" d="M64.8,30.1c-0.1,0-0.3-0.1-0.3-0.2c0-0.2,0.1-0.3,0.2-0.4l4.3-1.2c0.2,0,0.3,0.1,0.4,0.2
							c0,0.2-0.1,0.3-0.2,0.4L64.8,30.1C64.8,30.1,64.8,30.1,64.8,30.1z"/>
						<path class="st8" d="M61.9,23.3c-0.1,0-0.2-0.1-0.3-0.2c-0.1-0.1,0-0.3,0.1-0.4l3.9-2.2c0.1-0.1,0.3,0,0.4,0.1
							c0.1,0.1,0,0.3-0.1,0.4l-3.9,2.2C62,23.3,62,23.3,61.9,23.3z"/>
						<path class="st8" d="M57.4,17.5c-0.1,0-0.2,0-0.2-0.1c-0.1-0.1-0.1-0.3,0-0.4l3.1-3.1c0.1-0.1,0.3-0.1,0.4,0
							c0.1,0.1,0.1,0.3,0,0.4l-3.1,3.1C57.6,17.5,57.5,17.5,57.4,17.5z"/>
						<path class="st8" d="M51.5,13c-0.1,0-0.1,0-0.2,0c-0.1-0.1-0.2-0.3-0.1-0.4l2.2-3.9c0.1-0.1,0.3-0.2,0.4-0.1
							C54.1,8.7,54.1,8.9,54,9l-2.2,3.9C51.7,13,51.6,13,51.5,13z"/>
						<path class="st8" d="M44.7,10.2C44.7,10.2,44.7,10.2,44.7,10.2c-0.2-0.1-0.3-0.2-0.3-0.4l1.2-4.3c0-0.2,0.2-0.3,0.4-0.2
							c0.2,0,0.3,0.2,0.2,0.4L45,10C45,10.1,44.8,10.2,44.7,10.2z"/>
					</g>
				</g>
			</g>
		</g>
	</g>
</g>
</svg>
