<svg xmlns="http://www.w3.org/2000/svg" xmlns:xlink="http://www.w3.org/1999/xlink" width="36" height="38" viewBox="0 0 36 38"><defs><path id="ofbdc" d="M64.33 1009.68a13.22 13.22 0 1 1-19.73 17.6 13.22 13.22 0 0 1 19.73-17.6"/><path id="ofbda" d="M41 1005h26.94v26.94H41V1005z"/><path id="ofbde" d="M54.45 1005.52a12.87 12.87 0 0 1 9.69 4.33c2.3 2.59 3.46 5.91 3.26 9.37a12.87 12.87 0 0 1-4.31 8.93 12.93 12.93 0 0 1-18.3-1.05 12.97 12.97 0 0 1 9.66-21.58zm.03 26.42c3.19 0 6.39-1.12 8.95-3.4 2.7-2.4 4.29-5.7 4.5-9.3.2-3.59-1-7.04-3.4-9.73a13.39 13.39 0 0 0-9.29-4.49 13.49 13.49 0 1 0-.77 26.92z"/><path id="ofbdf" d="M62.65 1011.18a10.97 10.97 0 1 1-16.37 14.6 10.97 10.97 0 0 1 16.37-14.6"/><path id="ofbdg" d="M54.46 1007.77a10.64 10.64 0 0 1 8 3.58 10.64 10.64 0 0 1 2.7 7.74 10.72 10.72 0 0 1-18.68 6.51 10.72 10.72 0 0 1 7.98-17.83zm.02 21.93c2.65 0 5.32-.94 7.46-2.85 2.24-1.99 3.56-4.74 3.74-7.73.17-3-.84-5.88-2.83-8.11-2-2.24-4.74-3.57-7.74-3.74a11.24 11.24 0 1 0-.64 22.43z"/><path id="ofbdh" d="M66.1 1028.01l9.3 10.45c.86.95.77 2.43-.19 3.29-.95.85-2.44.77-3.29-.2l-9.31-10.44"/><path id="ofbdb" d="M76.25 1027.75v14.85h-13.9v-14.85h13.9z"/><path id="ofbdj" d="M73.67 1042.6a2.6 2.6 0 0 1-1.94-.87l-9.31-10.44a.26.26 0 1 1 .39-.34l9.3 10.44a2.06 2.06 0 0 0 2.93.16 2.07 2.07 0 0 0 .17-2.92l-9.31-10.45a.26.26 0 0 1 .02-.36c.1-.1.27-.09.36.02l9.32 10.44a2.58 2.58 0 0 1-.21 3.66c-.48.43-1.09.66-1.72.66"/><clipPath id="ofbdd"><use xlink:href="#ofbda"/></clipPath><clipPath id="ofbdi"><use xlink:href="#ofbdb"/></clipPath></defs><g><g transform="translate(-41 -1005)"><use fill="#fff" xlink:href="#ofbdc"/></g><g transform="translate(-41 -1005)"/><g clip-path="url(#ofbdd)" transform="translate(-41 -1005)"><use fill="#b49740" xlink:href="#ofbde"/></g><g transform="translate(-41 -1005)"><use fill="#f2f2f2" xlink:href="#ofbdf"/></g><g transform="translate(-41 -1005)"><use fill="#b49740" xlink:href="#ofbdg"/></g><g transform="translate(-41 -1005)"><use fill="#fff" xlink:href="#ofbdh"/></g><g transform="translate(-41 -1005)"/><g clip-path="url(#ofbdi)" transform="translate(-41 -1005)"><use fill="#b49740" xlink:href="#ofbdj"/></g></g></svg>