<svg xmlns="http://www.w3.org/2000/svg" xmlns:xlink="http://www.w3.org/1999/xlink" width="37" height="32" viewBox="0 0 37 32"><defs><path id="535rb" d="M41.25 867.13h27.88v-27.88H41.25z"/><path id="535rc" d="M41 839h28.38v28.38H41zm.5 27.88h27.38V839.5H41.5z"/><path id="535rd" d="M51.23 839.25v15.65l4-2.36 3.83 2.36v-15.65z"/><path id="535re" d="M59.3 839v16.34l-4.08-2.5-4.24 2.5V839zm-7.82 15.46l3.75-2.2 3.57 2.2V839.5h-7.32z"/><path id="535rf" d="M77.01 857.53H63.86a.24.24 0 0 1-.24-.24v-1.69c0-.13.1-.24.24-.24h13.15c.13 0 .24.1.24.24v1.69c0 .13-.1.24-.24.24"/><path id="535rg" d="M77 857.28H63.87l-.01-1.67H77zm.01.5a.5.5 0 0 0 .5-.5v-1.68a.5.5 0 0 0-.5-.49H63.86a.5.5 0 0 0-.49.5v1.68c0 .27.22.49.49.49z"/><path id="535rh" d="M77.01 859.7H63.86a.24.24 0 0 1-.24-.24v-1.69c0-.13.1-.24.24-.24h13.15c.13 0 .24.1.24.24v1.69c0 .13-.1.24-.24.24"/><path id="535ri" d="M77 859.45H63.87l-.01-1.67H77zm.01.5a.5.5 0 0 0 .5-.5v-1.68a.5.5 0 0 0-.5-.49H63.86a.5.5 0 0 0-.49.5v1.68c0 .27.22.49.49.49z"/><path id="535rj" d="M77.01 861.87H63.86a.24.24 0 0 1-.24-.24v-1.69c0-.13.1-.24.24-.24h13.15c.13 0 .24.1.24.24v1.69c0 .13-.1.24-.24.24"/><path id="535rk" d="M77 861.62H63.87l-.01-1.67H77zm.01.5a.5.5 0 0 0 .5-.5v-1.68a.5.5 0 0 0-.5-.49H63.86a.5.5 0 0 0-.49.5v1.68c0 .27.22.49.49.49z"/><path id="535rl" d="M77.01 864.04H63.86a.24.24 0 0 1-.24-.24v-1.69c0-.13.1-.24.24-.24h13.15c.13 0 .24.1.24.24v1.69c0 .13-.1.24-.24.24"/><path id="535rm" d="M77 863.79H63.87l-.01-1.67H77zm.01.5a.5.5 0 0 0 .5-.5v-1.68a.5.5 0 0 0-.5-.49H63.86a.5.5 0 0 0-.49.5v1.68c0 .27.22.49.49.49z"/><path id="535rn" d="M77.01 866.2H63.86a.24.24 0 0 1-.24-.23v-1.69c0-.13.1-.24.24-.24h13.15c.13 0 .24.1.24.24v1.69c0 .13-.1.24-.24.24"/><path id="535ro" d="M77 865.96H63.87l-.01-1.67H77zm.01.5a.5.5 0 0 0 .5-.5v-1.68a.5.5 0 0 0-.5-.49H63.86a.5.5 0 0 0-.49.5v1.68c0 .27.22.49.49.49z"/><path id="535rp" d="M77.01 868.38H63.86a.24.24 0 0 1-.24-.24v-1.69c0-.13.1-.24.24-.24h13.15c.13 0 .24.1.24.24v1.69c0 .13-.1.24-.24.24"/><path id="535rq" d="M77 868.12H63.87l-.01-1.67H77zm.01.5a.5.5 0 0 0 .5-.5v-1.68a.5.5 0 0 0-.5-.49H63.86a.5.5 0 0 0-.49.5v1.68c0 .27.22.49.49.49z"/><path id="535rr" d="M77.01 870.54H63.86a.24.24 0 0 1-.24-.24v-1.69c0-.13.1-.24.24-.24h13.15c.13 0 .24.1.24.24v1.69c0 .13-.1.24-.24.24"/><path id="535ra" d="M63.37 870.79H77.5v-2.67H63.37z"/><path id="535rt" d="M77 870.29H63.87l-.01-1.67H77zm.01.5a.5.5 0 0 0 .5-.5v-1.68a.5.5 0 0 0-.5-.49H63.86a.5.5 0 0 0-.49.5v1.68c0 .27.22.49.49.49z"/><clipPath id="535rs"><use xlink:href="#535ra"/></clipPath></defs><g><g transform="translate(-41 -839)"><use fill="#f2f2f2" xlink:href="#535rb"/></g><g transform="translate(-41 -839)"><use fill="#b49740" xlink:href="#535rc"/></g><g transform="translate(-41 -839)"><use fill="#fff" xlink:href="#535rd"/></g><g transform="translate(-41 -839)"><use fill="#b49740" xlink:href="#535re"/></g><g transform="translate(-41 -839)"><use fill="#fff" xlink:href="#535rf"/></g><g transform="translate(-41 -839)"><use fill="#b49740" xlink:href="#535rg"/></g><g transform="translate(-41 -839)"><use fill="#fff" xlink:href="#535rh"/></g><g transform="translate(-41 -839)"><use fill="#b49740" xlink:href="#535ri"/></g><g transform="translate(-41 -839)"><use fill="#fff" xlink:href="#535rj"/></g><g transform="translate(-41 -839)"><use fill="#b49740" xlink:href="#535rk"/></g><g transform="translate(-41 -839)"><use fill="#fff" xlink:href="#535rl"/></g><g transform="translate(-41 -839)"><use fill="#b49740" xlink:href="#535rm"/></g><g transform="translate(-41 -839)"><use fill="#fff" xlink:href="#535rn"/></g><g transform="translate(-41 -839)"><use fill="#b49740" xlink:href="#535ro"/></g><g transform="translate(-41 -839)"><use fill="#fff" xlink:href="#535rp"/></g><g transform="translate(-41 -839)"><use fill="#b49740" xlink:href="#535rq"/></g><g transform="translate(-41 -839)"><use fill="#fff" xlink:href="#535rr"/></g><g transform="translate(-41 -839)"/><g clip-path="url(#535rs)" transform="translate(-41 -839)"><use fill="#b49740" xlink:href="#535rt"/></g></g></svg>