<svg xmlns="http://www.w3.org/2000/svg" xmlns:xlink="http://www.w3.org/1999/xlink" width="41" height="40" viewBox="0 0 41 40"><defs><path id="w687b" d="M61.08 928.1h-.57v-5.25a4.75 4.75 0 0 0-4.73-4.76 4.75 4.75 0 0 0-4.73 4.76v5.24h-.57v-5.24a5.32 5.32 0 0 1 5.3-5.33c2.92 0 5.3 2.4 5.3 5.33z"/><path id="w687c" d="M62.56 929.6h-.57v-6.77a6.24 6.24 0 0 0-6.21-6.26 6.24 6.24 0 0 0-6.21 6.26v6.78H49v-6.78a6.81 6.81 0 0 1 6.78-6.83 6.81 6.81 0 0 1 6.78 6.83z"/><path id="w687a" d="M41 955.43h40.89V916H41z"/><path id="w687e" d="M41.28 951.02h29V927.4h-29z"/><path id="w687f" d="M41.57 927.7h28.42v23.03H41.57zM41 951.3h29.56v-24.18H41z"/><path id="w687g" d="M81.36 939.6H67.99a.25.25 0 0 1-.25-.25v-1.72c0-.14.11-.25.25-.25h13.37c.13 0 .24.11.24.25v1.72c0 .14-.1.25-.24.25"/><path id="w687h" d="M81.32 939.31l-13.3.04-.03-1.69 13.33-.04zm.04.57c.3 0 .53-.24.53-.53v-1.73c0-.3-.24-.53-.53-.53H68c-.3 0-.53.24-.53.53v1.73c0 .3.24.53.53.53z"/><path id="w687i" d="M81.36 941.82H67.99a.25.25 0 0 1-.25-.25v-1.72c0-.14.11-.25.25-.25h13.37c.13 0 .24.11.24.25v1.72c0 .14-.1.25-.24.25"/><path id="w687j" d="M81.32 941.53l-13.3.04-.03-1.69 13.33-.04zm.04.57c.3 0 .53-.24.53-.53v-1.73c0-.3-.24-.53-.53-.53H68c-.3 0-.53.24-.53.53v1.73c0 .3.24.53.53.53z"/><path id="w687k" d="M81.36 944.04H67.99a.25.25 0 0 1-.25-.25v-1.72c0-.14.11-.25.25-.25h13.37c.13 0 .24.11.24.25v1.72c0 .14-.1.25-.24.25"/><path id="w687l" d="M81.32 943.75l-13.3.04-.03-1.69 13.33-.04zm.04.57c.3 0 .53-.24.53-.53v-1.73c0-.3-.24-.53-.53-.53H68c-.3 0-.53.24-.53.53v1.73c0 .3.24.53.53.53z"/><path id="w687m" d="M81.36 946.26H67.99a.25.25 0 0 1-.25-.25v-1.72c0-.14.11-.25.25-.25h13.37c.13 0 .24.11.24.25V946c0 .14-.1.25-.24.25"/><path id="w687n" d="M81.32 945.97l-13.3.04-.03-1.69 13.33-.04zm.04.57c.3 0 .53-.24.53-.53v-1.73c0-.3-.24-.53-.53-.53H68c-.3 0-.53.24-.53.53v1.73c0 .3.24.53.53.53z"/><path id="w687o" d="M81.36 948.48H67.99a.25.25 0 0 1-.25-.25v-1.72c0-.14.11-.25.25-.25h13.37c.13 0 .24.11.24.25v1.72c0 .14-.1.25-.24.25"/><path id="w687p" d="M81.32 948.2l-13.3.04-.03-1.69 13.33-.04zm.04.57c.3 0 .53-.24.53-.53v-1.73c0-.3-.24-.53-.53-.53H68c-.3 0-.53.24-.53.53v1.73c0 .3.24.53.53.53z"/><path id="w687q" d="M81.36 950.7H67.99a.25.25 0 0 1-.25-.25v-1.72c0-.14.11-.25.25-.25h13.37c.13 0 .24.11.24.25v1.72c0 .14-.1.25-.24.25"/><path id="w687r" d="M81.32 950.42l-13.3.04-.03-1.69 13.33-.04zm.04.57c.3 0 .53-.24.53-.53v-1.73c0-.3-.24-.53-.53-.53H68c-.3 0-.53.24-.53.53v1.73c0 .3.24.53.53.53z"/><path id="w687s" d="M81.36 952.92H67.99a.25.25 0 0 1-.25-.25v-1.72c0-.14.11-.25.25-.25h13.37c.13 0 .24.11.24.25v1.72c0 .14-.1.25-.24.25"/><path id="w687t" d="M81.32 952.64l-13.3.04-.03-1.69 13.33-.04zm.04.57c.3 0 .53-.24.53-.53v-1.73c0-.3-.24-.53-.53-.53H68c-.3 0-.53.24-.53.53v1.73c0 .3.24.53.53.53z"/><path id="w687u" d="M73.65 949.04c0 3.37-2.72 6.1-6.06 6.1a6.09 6.09 0 0 1-6.07-6.1c0-3.38 2.72-6.11 6.07-6.11a6.09 6.09 0 0 1 6.06 6.1"/><path id="w687v" d="M67.59 943.22a5.8 5.8 0 0 1 5.78 5.82 5.8 5.8 0 0 1-5.78 5.82 5.8 5.8 0 0 1-5.78-5.82 5.8 5.8 0 0 1 5.78-5.82zm0 12.21c3.5 0 6.35-2.86 6.35-6.39 0-3.52-2.85-6.39-6.35-6.39a6.38 6.38 0 0 0-6.35 6.4c0 3.52 2.85 6.38 6.35 6.38z"/><path id="w687w" d="M72.54 949.04c0 2.76-2.22 5-4.96 5a4.98 4.98 0 0 1-4.96-5c0-2.76 2.22-5 4.96-5a4.98 4.98 0 0 1 4.96 5"/><path id="w687x" d="M67.59 944.32a4.7 4.7 0 0 1 4.67 4.71 4.7 4.7 0 0 1-4.67 4.71 4.7 4.7 0 0 1 0-9.42zm0 10c2.89 0 5.24-2.38 5.24-5.29a5.27 5.27 0 0 0-5.24-5.28 5.27 5.27 0 0 0-5.25 5.28 5.27 5.27 0 0 0 5.25 5.28z"/><path id="w687y" d="M59.37 936.88c0-2-1.6-3.62-3.59-3.62a3.61 3.61 0 1 0-1.2 7.03v5.02h2.4v-5.02c1.4-.5 2.4-1.84 2.4-3.41"/><path id="w687z" d="M54.87 940.08l-.19-.07a3.33 3.33 0 0 1 1.1-6.47 3.34 3.34 0 1 1 1.1 6.47l-.18.07v4.94h-1.83zm2.4.4a3.9 3.9 0 0 0-1.48-7.51 3.9 3.9 0 1 0-1.48 7.5v5.13h2.96z"/><clipPath id="w687d"><use xlink:href="#w687a"/></clipPath></defs><g><g transform="translate(-41 -916)"><use fill="#b49740" xlink:href="#w687b"/></g><g transform="translate(-41 -916)"><use fill="#b49740" xlink:href="#w687c"/></g><g transform="translate(-41 -916)"/><g clip-path="url(#w687d)" transform="translate(-41 -916)"><use fill="#f2f2f2" xlink:href="#w687e"/></g><g clip-path="url(#w687d)" transform="translate(-41 -916)"><use fill="#b49740" xlink:href="#w687f"/></g><g clip-path="url(#w687d)" transform="translate(-41 -916)"><use fill="#fff" xlink:href="#w687g"/></g><g clip-path="url(#w687d)" transform="translate(-41 -916)"><use fill="#b49740" xlink:href="#w687h"/></g><g clip-path="url(#w687d)" transform="translate(-41 -916)"><use fill="#fff" xlink:href="#w687i"/></g><g clip-path="url(#w687d)" transform="translate(-41 -916)"><use fill="#b49740" xlink:href="#w687j"/></g><g clip-path="url(#w687d)" transform="translate(-41 -916)"><use fill="#fff" xlink:href="#w687k"/></g><g clip-path="url(#w687d)" transform="translate(-41 -916)"><use fill="#b49740" xlink:href="#w687l"/></g><g clip-path="url(#w687d)" transform="translate(-41 -916)"><use fill="#fff" xlink:href="#w687m"/></g><g clip-path="url(#w687d)" transform="translate(-41 -916)"><use fill="#b49740" xlink:href="#w687n"/></g><g clip-path="url(#w687d)" transform="translate(-41 -916)"><use fill="#fff" xlink:href="#w687o"/></g><g clip-path="url(#w687d)" transform="translate(-41 -916)"><use fill="#b49740" xlink:href="#w687p"/></g><g clip-path="url(#w687d)" transform="translate(-41 -916)"><use fill="#fff" xlink:href="#w687q"/></g><g clip-path="url(#w687d)" transform="translate(-41 -916)"><use fill="#b49740" xlink:href="#w687r"/></g><g clip-path="url(#w687d)" transform="translate(-41 -916)"><use fill="#fff" xlink:href="#w687s"/></g><g clip-path="url(#w687d)" transform="translate(-41 -916)"><use fill="#b49740" xlink:href="#w687t"/></g><g clip-path="url(#w687d)" transform="translate(-41 -916)"><use fill="#fff" xlink:href="#w687u"/></g><g clip-path="url(#w687d)" transform="translate(-41 -916)"><use fill="#b49740" xlink:href="#w687v"/></g><g clip-path="url(#w687d)" transform="translate(-41 -916)"><use fill="#fff" xlink:href="#w687w"/></g><g clip-path="url(#w687d)" transform="translate(-41 -916)"><use fill="#b49740" xlink:href="#w687x"/></g><g clip-path="url(#w687d)" transform="translate(-41 -916)"><use fill="#fff" xlink:href="#w687y"/></g><g clip-path="url(#w687d)" transform="translate(-41 -916)"><use fill="#b49740" xlink:href="#w687z"/></g></g></svg>