<svg xmlns="http://www.w3.org/2000/svg" viewBox="0 0 96.79 93.48"><defs><style>.cls-1{fill:#b49740;}</style></defs><title>Coins_ici</title><g id="Слой_1" data-name="Слой 1"><path class="cls-1" d="M50,56.64A10.29,10.29,0,1,1,60.32,46.35,10.31,10.31,0,0,1,50,56.64ZM50,37a9.37,9.37,0,1,0,9.37,9.37A9.38,9.38,0,0,0,50,37Z"/><path class="cls-1" d="M50.35,65.16A18.26,18.26,0,1,1,63.91,34.67a.45.45,0,0,1,0,.64.46.46,0,0,1-.64,0,17.35,17.35,0,1,0,0,23.24.46.46,0,0,1,.68.61A18.32,18.32,0,0,1,50.35,65.16Z"/><path class="cls-1" d="M59.87,56.64a.46.46,0,0,1-.46-.46v-10a.46.46,0,0,1,.91,0v10A.46.46,0,0,1,59.87,56.64Z"/><path class="cls-1" d="M50.69,83.55A36.81,36.81,0,1,1,87.5,46.74,36.85,36.85,0,0,1,50.69,83.55Zm0-73a36.2,36.2,0,1,0,36.2,36.2A36.24,36.24,0,0,0,50.69,10.54Z"/><path class="cls-1" d="M50.69,73.93A27.19,27.19,0,1,1,77.88,46.74,27.22,27.22,0,0,1,50.69,73.93Zm0-53.77A26.58,26.58,0,1,0,77.27,46.74,26.61,26.61,0,0,0,50.69,20.16Z"/><path class="cls-1" d="M50.69,81.33A34.59,34.59,0,1,1,85.28,46.74,34.63,34.63,0,0,1,50.69,81.33Zm0-68.57a34,34,0,1,0,34,34A34,34,0,0,0,50.69,12.76Z"/><path class="cls-1" d="M47,19.05a.3.3,0,0,1-.3-.26l-.57-4.42a.3.3,0,0,1,.26-.34.31.31,0,0,1,.34.26l.57,4.42a.31.31,0,0,1-.26.34Z"/><path class="cls-1" d="M39.85,21a.3.3,0,0,1-.28-.19l-1.69-4.12a.31.31,0,0,1,.16-.4.31.31,0,0,1,.4.17l1.69,4.12A.31.31,0,0,1,40,21Z"/><path class="cls-1" d="M33.47,24.66a.3.3,0,0,1-.24-.12L30.53,21a.3.3,0,0,1,.48-.37l2.7,3.54a.3.3,0,0,1-.06.43A.3.3,0,0,1,33.47,24.66Z"/><path class="cls-1" d="M28.26,29.88a.3.3,0,0,1-.18-.06L24.56,27.1a.31.31,0,0,1-.06-.43.31.31,0,0,1,.43-.06l3.52,2.73a.29.29,0,0,1,.05.42A.3.3,0,0,1,28.26,29.88Z"/><path class="cls-1" d="M24.59,36.27l-.12,0-4.11-1.71a.3.3,0,0,1-.16-.4.3.3,0,0,1,.4-.16l4.1,1.71a.31.31,0,0,1-.11.59Z"/><path class="cls-1" d="M22.69,43.39h0l-4.41-.6a.3.3,0,1,1,.08-.6l4.41.6a.3.3,0,0,1,0,.6Z"/><path class="cls-1" d="M18.28,51.33a.3.3,0,0,1-.3-.27.32.32,0,0,1,.26-.34l4.42-.56a.3.3,0,0,1,.34.26.3.3,0,0,1-.27.34l-4.41.57Z"/><path class="cls-1" d="M20.5,59.57a.31.31,0,0,1-.29-.19.3.3,0,0,1,.17-.39L24.5,57.3a.29.29,0,0,1,.39.16.3.3,0,0,1-.16.4l-4.12,1.69Z"/><path class="cls-1" d="M24.77,67a.3.3,0,0,1-.24-.12.3.3,0,0,1,0-.43l3.54-2.7a.31.31,0,1,1,.37.49L25,66.9A.3.3,0,0,1,24.77,67Z"/><path class="cls-1" d="M30.8,73a.3.3,0,0,1-.18-.06.32.32,0,0,1-.06-.43L33.28,69a.31.31,0,0,1,.43-.06.31.31,0,0,1,.06.43l-2.72,3.52A.3.3,0,0,1,30.8,73Z"/><path class="cls-1" d="M38.2,77.25l-.12,0a.31.31,0,0,1-.16-.4l1.71-4.11a.32.32,0,0,1,.4-.16.29.29,0,0,1,.16.4l-1.71,4.1A.3.3,0,0,1,38.2,77.25Z"/><path class="cls-1" d="M46.44,79.45h0a.3.3,0,0,1-.26-.34l.59-4.41a.31.31,0,0,1,.61.08l-.6,4.41A.3.3,0,0,1,46.44,79.45Z"/><path class="cls-1" d="M55,79.45a.3.3,0,0,1-.3-.27l-.56-4.41a.29.29,0,0,1,.26-.34.3.3,0,0,1,.34.26l.57,4.42a.31.31,0,0,1-.27.34Z"/><path class="cls-1" d="M63.22,77.23a.32.32,0,0,1-.29-.18l-1.69-4.12a.31.31,0,0,1,.17-.4.31.31,0,0,1,.4.17l1.69,4.12a.3.3,0,0,1-.17.39A.23.23,0,0,1,63.22,77.23Z"/><path class="cls-1" d="M70.6,73a.3.3,0,0,1-.24-.12l-2.7-3.54a.3.3,0,0,1,.06-.42.31.31,0,0,1,.43.06l2.69,3.54a.29.29,0,0,1,0,.42A.33.33,0,0,1,70.6,73Z"/><path class="cls-1" d="M76.63,66.93a.31.31,0,0,1-.18-.07l-3.52-2.72a.29.29,0,0,1-.06-.42.31.31,0,0,1,.43-.06l3.52,2.72a.3.3,0,0,1,.05.43A.3.3,0,0,1,76.63,66.93Z"/><path class="cls-1" d="M80.9,59.53a.25.25,0,0,1-.12,0l-4.11-1.72a.29.29,0,0,1-.16-.39.31.31,0,0,1,.4-.17L81,59a.31.31,0,0,1,.17.4A.32.32,0,0,1,80.9,59.53Z"/><path class="cls-1" d="M83.1,51.29h0l-4.41-.6a.3.3,0,1,1,.08-.6l4.41.59a.31.31,0,0,1,.26.35A.3.3,0,0,1,83.1,51.29Z"/><path class="cls-1" d="M78.68,43.32a.3.3,0,0,1-.3-.26.3.3,0,0,1,.26-.34l4.41-.57a.32.32,0,0,1,.35.26.3.3,0,0,1-.27.34l-4.41.57Z"/><path class="cls-1" d="M76.76,36.2a.3.3,0,0,1-.11-.58l4.11-1.69a.31.31,0,0,1,.4.17.3.3,0,0,1-.17.39l-4.11,1.69A.25.25,0,0,1,76.76,36.2Z"/><path class="cls-1" d="M73.07,29.83a.33.33,0,0,1-.24-.12.3.3,0,0,1,0-.43l3.54-2.7a.3.3,0,0,1,.43.06.29.29,0,0,1-.06.42l-3.54,2.7A.26.26,0,0,1,73.07,29.83Z"/><path class="cls-1" d="M67.85,24.62a.33.33,0,0,1-.19-.06.31.31,0,0,1,0-.43l2.72-3.52a.3.3,0,0,1,.43-.06.31.31,0,0,1,0,.43L68.09,24.5A.3.3,0,0,1,67.85,24.62Z"/><path class="cls-1" d="M61.46,20.94l-.12,0a.32.32,0,0,1-.16-.4l1.72-4.11a.29.29,0,0,1,.39-.16.31.31,0,0,1,.17.4l-1.72,4.1A.3.3,0,0,1,61.46,20.94Z"/><path class="cls-1" d="M54.34,19h0A.3.3,0,0,1,54,18.7l.59-4.41A.3.3,0,0,1,55,14a.3.3,0,0,1,.27.34l-.6,4.41A.3.3,0,0,1,54.34,19Z"/><path class="cls-1" d="M50.56,18.8a.3.3,0,0,1-.3-.3V14.05a.31.31,0,0,1,.61,0V18.5A.3.3,0,0,1,50.56,18.8Z"/><path class="cls-1" d="M43.26,19.8a.3.3,0,0,1-.29-.23l-1.16-4.29A.32.32,0,0,1,42,14.9a.31.31,0,0,1,.37.22l1.15,4.3a.29.29,0,0,1-.21.37Z"/><path class="cls-1" d="M36.46,22.65a.29.29,0,0,1-.26-.15L34,18.64a.31.31,0,0,1,.11-.41.3.3,0,0,1,.42.11l2.22,3.85a.3.3,0,0,1-.11.42A.26.26,0,0,1,36.46,22.65Z"/><path class="cls-1" d="M30.63,27.16a.29.29,0,0,1-.21-.09l-3.15-3.14a.3.3,0,0,1,.43-.43l3.15,3.14a.3.3,0,0,1,0,.43A.31.31,0,0,1,30.63,27.16Z"/><path class="cls-1" d="M26.17,33A.28.28,0,0,1,26,33l-3.86-2.23a.31.31,0,0,1-.11-.41.3.3,0,0,1,.42-.11l3.85,2.22a.3.3,0,0,1,.11.42A.28.28,0,0,1,26.17,33Z"/><path class="cls-1" d="M23.38,39.85H23.3L19,38.69a.29.29,0,0,1-.21-.37.32.32,0,0,1,.37-.22l4.3,1.16a.29.29,0,0,1,.21.37A.3.3,0,0,1,23.38,39.85Z"/><path class="cls-1" d="M22.45,47.17H18a.3.3,0,0,1-.3-.31.29.29,0,0,1,.3-.3h4.45a.29.29,0,0,1,.3.3A.3.3,0,0,1,22.45,47.17Z"/><path class="cls-1" d="M19.15,55.62a.3.3,0,0,1-.08-.6l4.3-1.15a.32.32,0,0,1,.37.22.3.3,0,0,1-.22.37l-4.3,1.15Z"/><path class="cls-1" d="M22.44,63.49a.3.3,0,0,1-.15-.56l3.85-2.23a.31.31,0,1,1,.31.53l-3.86,2.22A.28.28,0,0,1,22.44,63.49Z"/><path class="cls-1" d="M27.66,70.24a.32.32,0,0,1-.21-.08.3.3,0,0,1,0-.43l3.14-3.15A.3.3,0,0,1,31,67l-3.14,3.15A.35.35,0,0,1,27.66,70.24Z"/><path class="cls-1" d="M34.45,75.41a.28.28,0,0,1-.15,0,.29.29,0,0,1-.11-.41l2.22-3.86a.31.31,0,0,1,.53.31l-2.23,3.85A.28.28,0,0,1,34.45,75.41Z"/><path class="cls-1" d="M42.35,78.65h-.08a.31.31,0,0,1-.22-.37L43.2,74a.32.32,0,0,1,.38-.22.3.3,0,0,1,.21.37l-1.15,4.3A.31.31,0,0,1,42.35,78.65Z"/><path class="cls-1" d="M50.81,79.73a.29.29,0,0,1-.3-.3V75a.3.3,0,0,1,.3-.31.31.31,0,0,1,.31.31v4.45A.3.3,0,0,1,50.81,79.73Z"/><path class="cls-1" d="M59.27,78.58a.3.3,0,0,1-.3-.22l-1.15-4.3a.31.31,0,0,1,.59-.16l1.15,4.3a.3.3,0,0,1-.21.37Z"/><path class="cls-1" d="M67.14,75.29a.3.3,0,0,1-.26-.15l-2.23-3.86a.31.31,0,0,1,.11-.41.3.3,0,0,1,.42.11l2.22,3.85a.3.3,0,0,1-.11.42A.28.28,0,0,1,67.14,75.29Z"/><path class="cls-1" d="M73.89,70.07a.31.31,0,0,1-.22-.09l-3.14-3.15A.3.3,0,0,1,71,66.4l3.14,3.15a.3.3,0,0,1,0,.43A.29.29,0,0,1,73.89,70.07Z"/><path class="cls-1" d="M79.06,63.28a.26.26,0,0,1-.15,0L75.05,61a.31.31,0,0,1-.11-.41.3.3,0,0,1,.42-.11l3.85,2.22a.3.3,0,0,1,.11.42A.29.29,0,0,1,79.06,63.28Z"/><path class="cls-1" d="M82.29,55.38h-.08l-4.29-1.15a.3.3,0,0,1-.22-.37.32.32,0,0,1,.37-.22l4.3,1.16a.31.31,0,0,1,.22.37A.31.31,0,0,1,82.29,55.38Z"/><path class="cls-1" d="M83.38,46.92H78.93a.31.31,0,1,1,0-.61h4.45a.31.31,0,0,1,0,.61Z"/><path class="cls-1" d="M77.93,39.62a.3.3,0,0,1-.29-.23.29.29,0,0,1,.21-.37l4.3-1.16a.3.3,0,0,1,.37.22.29.29,0,0,1-.21.37L78,39.61Z"/><path class="cls-1" d="M75.08,32.82a.3.3,0,0,1-.26-.16.29.29,0,0,1,.11-.41L78.78,30a.31.31,0,0,1,.42.12.31.31,0,0,1-.11.41l-3.86,2.23A.42.42,0,0,1,75.08,32.82Z"/><path class="cls-1" d="M70.57,27a.31.31,0,0,1-.22-.09.3.3,0,0,1,0-.43l3.15-3.15a.3.3,0,0,1,.43.43L70.78,26.9A.3.3,0,0,1,70.57,27Z"/><path class="cls-1" d="M64.7,22.53a.42.42,0,0,1-.15,0,.3.3,0,0,1-.11-.42l2.22-3.85a.31.31,0,0,1,.42-.12.32.32,0,0,1,.11.42L65,22.37A.3.3,0,0,1,64.7,22.53Z"/><path class="cls-1" d="M57.88,19.74H57.8a.31.31,0,0,1-.22-.38l1.15-4.3a.31.31,0,0,1,.38-.21.29.29,0,0,1,.21.37l-1.15,4.3A.31.31,0,0,1,57.88,19.74Z"/></g></svg>